<?xml version="1.0" encoding="utf-8"?>
<!-- Generator: Adobe Illustrator 16.0.0, SVG Export Plug-In . SVG Version: 6.00 Build 0)  -->
<!DOCTYPE svg PUBLIC "-//W3C//DTD SVG 1.1//EN" "http://www.w3.org/Graphics/SVG/1.1/DTD/svg11.dtd">
<svg version="1.1" id="圖層_1" xmlns="http://www.w3.org/2000/svg" xmlns:xlink="http://www.w3.org/1999/xlink" x="0px" y="0px"
	 width="49.367px" height="36.819px" viewBox="0 0 49.367 36.819" enable-background="new 0 0 49.367 36.819" xml:space="preserve">
<g>
	<g>
		<path fill="#D13D7E" d="M33.409,27.65H3.456C1.548,27.65,0,26.102,0,24.194V3.457C0,1.547,1.548,0,3.456,0h29.953
			c1.909,0,3.456,1.547,3.456,3.457v20.737C36.865,26.102,35.318,27.65,33.409,27.65z M8.062,4.033
			c-2.227,0-4.031,1.805-4.031,4.032c0,2.227,1.805,4.032,4.031,4.032c2.229,0,4.033-1.805,4.033-4.032
			C12.096,5.838,10.291,4.033,8.062,4.033z M4.607,23.042h27.649v-8.065l-6.302-6.301c-0.337-0.337-0.884-0.337-1.223,0
			l-9.757,9.757l-3.996-3.998c-0.337-0.337-0.886-0.337-1.223,0l-5.149,5.15V23.042z"/>
	</g>
	<g>
		<path fill="#D13D7E" d="M25.731,20.992V14.45c0-0.701,0.563-1.266,1.267-1.266h6.541c0.349,0,0.635,0.285,0.635,0.633v2.111
			c0,0.348-0.286,0.633-0.635,0.633h-4.43v4.432c0,0.349-0.286,0.634-0.635,0.634h-2.111C26.017,21.625,25.731,21.34,25.731,20.992z
			 M40.926,13.816v2.111c0,0.348,0.285,0.633,0.633,0.633h4.433v4.432c0,0.349,0.284,0.634,0.633,0.634h2.109
			c0.349,0,0.634-0.285,0.634-0.634V14.45c0-0.701-0.565-1.266-1.267-1.266h-6.542C41.211,13.184,40.926,13.469,40.926,13.816z
			 M48.733,28.377h-2.109c-0.349,0-0.633,0.285-0.633,0.635v4.43h-4.433c-0.348,0-0.633,0.285-0.633,0.634v2.11
			c0,0.349,0.285,0.633,0.633,0.633h6.542c0.701,0,1.267-0.564,1.267-1.266v-6.541C49.367,28.663,49.082,28.377,48.733,28.377z
			 M34.174,36.186v-2.11c0-0.349-0.286-0.634-0.635-0.634h-4.43v-4.43c0-0.35-0.286-0.635-0.635-0.635h-2.111
			c-0.347,0-0.632,0.285-0.632,0.635v6.541c0,0.701,0.563,1.266,1.267,1.266h6.541C33.888,36.819,34.174,36.535,34.174,36.186z"/>
	</g>
</g>
</svg>
