<?xml version="1.0" encoding="utf-8"?>
<!-- Generator: Adobe Illustrator 16.0.0, SVG Export Plug-In . SVG Version: 6.00 Build 0)  -->
<!DOCTYPE svg PUBLIC "-//W3C//DTD SVG 1.1//EN" "http://www.w3.org/Graphics/SVG/1.1/DTD/svg11.dtd">
<svg version="1.1" id="圖層_1" xmlns="http://www.w3.org/2000/svg" xmlns:xlink="http://www.w3.org/1999/xlink" x="0px" y="0px"
	 width="164.576px" height="59.207px" viewBox="0 0 164.576 59.207" enable-background="new 0 0 164.576 59.207"
	 xml:space="preserve">
<g>
	<path fill="none" d="M0,59.207C0,39.471,0,19.736,0,0c54.859,0,109.718,0,164.576,0c0,19.736,0,39.471,0,59.207
		C109.718,59.207,54.859,59.207,0,59.207z M47.726,43.735c0-0.151,0-0.278,0-0.407c0-3.098-0.004-6.195,0.005-9.293
		c0.003-0.968,0.046-1.936,0.069-2.903c0.006-0.253,0.031-0.487,0.145-0.735c0.183-0.4,0.435-0.723,0.813-0.912
		c0.455-0.227,0.959-0.298,1.468-0.264c0.091,0.006,0.179,0.072,0.287,0.072c0.503-0.002,1.149,0.459,1.274,0.991
		c0.037,0.157,0.051,0.322,0.109,0.471c0.109,0.279,0.128,0.564,0.128,0.857c-0.002,3.904-0.003,7.809-0.003,11.714
		c0,0.138,0.007,0.276,0.01,0.414c2.375,0,4.717,0,7.078,0c0.03-0.061,0.104-0.14,0.088-0.188c-0.068-0.211,0.013-0.412,0.012-0.617
		c-0.007-3.97-0.004-7.939-0.003-11.909c0-0.178,0.004-0.35,0.076-0.522c0.131-0.317,0.275-0.629,0.547-0.844
		c0.233-0.185,0.522-0.279,0.812-0.349c0.233-0.056,0.485,0.029,0.71-0.092c0.145,0.134,0.323,0.042,0.483,0.074
		c0.182,0.035,0.361,0.076,0.537,0.144c0.51,0.198,0.782,0.612,0.883,1.099c0.097,0.466,0.183,0.942,0.175,1.43
		c-0.015,0.898-0.004,1.796-0.005,2.693c0,1.12-0.014,2.24,0.003,3.359c0.018,1.11-0.078,2.224,0.07,3.333
		c0.026,0.2,0.065,0.396,0.121,0.586c0.283,0.972,0.974,1.552,1.891,1.879c0.593,0.212,1.212,0.321,1.847,0.319
		c0.391-0.002,0.781-0.01,1.171,0.002c0.499,0.014,0.991-0.04,1.469-0.169c0.181-0.049,0.419,0.013,0.539-0.204
		c0-1.747,0-3.491,0-5.235c0-0.976,0-1.952,0.001-2.929c0-0.988,0.013-1.979-0.003-2.967c-0.017-0.969,0.068-1.938-0.072-2.904
		c-0.042-0.288-0.015-0.58-0.068-0.875c-0.067-0.37-0.139-0.734-0.25-1.092c-0.166-0.536-0.403-1.035-0.698-1.513
		c-0.227-0.368-0.542-0.648-0.836-0.951c-0.365-0.376-0.808-0.632-1.292-0.818c-0.733-0.281-1.497-0.412-2.281-0.418
		c-0.625-0.006-1.243,0.009-1.866,0.136c-0.592,0.121-1.16,0.281-1.682,0.57c-0.396,0.219-0.755,0.497-1.106,0.79
		c-0.417,0.348-0.727,0.758-0.971,1.229c-0.16,0.31-0.311,0.624-0.487,0.978c-0.157-0.284-0.295-0.519-0.419-0.761
		c-0.257-0.504-0.544-0.993-0.932-1.404c-0.461-0.488-1.008-0.859-1.639-1.117c-0.512-0.209-1.047-0.298-1.578-0.422
		c-0.921,0.028-1.846-0.083-2.763,0.143c-0.474,0.117-0.938,0.244-1.359,0.486c-0.26,0.149-0.497,0.341-0.733,0.527
		c-0.201,0.158-0.428,0.305-0.57,0.508c-0.321,0.458-0.597,0.949-0.891,1.425c-0.027,0.044-0.06,0.084-0.104,0.146
		c-0.16-0.324-0.334-0.602-0.438-0.904c-0.218-0.636-0.643-1.084-1.219-1.381c-0.696-0.358-1.458-0.524-2.233-0.551
		c-0.836-0.029-1.678-0.059-2.513,0.064c-0.263,0.039-0.529,0.053-0.792,0.09c-0.058,0.008-0.108,0.066-0.126,0.079
		c0,6.008,0,11.957,0,17.904c0,0.128-0.027,0.246-0.063,0.369c-0.03,0.105,0.051,0.24,0.058,0.362
		c0.003,0.067-0.046,0.139-0.068,0.198c0.04,0.074,0.075,0.14,0.112,0.21C42.995,43.735,45.337,43.735,47.726,43.735z
		 M132.318,26.832c-0.412-0.413-0.776-0.795-1.161-1.155c-0.222-0.207-0.458-0.411-0.72-0.557c-0.352-0.196-0.726-0.356-1.107-0.492
		c-0.605-0.214-1.225-0.364-1.871-0.335c-0.46,0.021-0.926-0.076-1.379,0.076c-0.361-0.054-0.689,0.121-1.035,0.175
		c-0.342,0.053-0.665,0.245-0.986,0.398c-0.35,0.167-0.663,0.386-0.972,0.629c-0.4,0.315-0.76,0.669-1.065,1.06
		c-0.326,0.417-0.622,0.866-0.855,1.35c-0.074,0.154-0.116,0.318-0.211,0.471c-0.158,0.257-0.289,0.553-0.344,0.848
		c-0.088,0.476-0.351,0.91-0.322,1.41c-0.227,0.512-0.155,1.081-0.312,1.607c0.053,0.554-0.086,1.1-0.078,1.651
		c0.01,0.746-0.04,1.494,0.074,2.238c0.039,0.249,0.006,0.498,0.068,0.756c0.109,0.459,0.13,0.935,0.232,1.401
		c0.119,0.546,0.311,1.063,0.496,1.582c0.123,0.346,0.34,0.656,0.498,0.991c0.256,0.539,1.05,1.49,1.533,1.847
		c0.463,0.343,0.933,0.661,1.482,0.847c0.197,0.066,0.398,0.121,0.596,0.189c0.118,0.041,0.229,0.099,0.363,0.08
		c0.059-0.008,0.128,0.002,0.184,0.025c0.263,0.107,0.533,0.135,0.814,0.131c0.508-0.009,1.017-0.025,1.522,0.004
		c0.452,0.027,0.885-0.088,1.304-0.188c0.507-0.122,1.008-0.321,1.447-0.632c0.092-0.064,0.181-0.135,0.277-0.191
		c0.265-0.154,0.526-0.322,0.703-0.568c0.154-0.215,0.299-0.434,0.479-0.631c0.195-0.213,0.354-0.457,0.539-0.68
		c0.045-0.055,0.014-0.209,0.197-0.138c0,0.06,0,0.134,0,0.208c0,0.521-0.006,1.041,0.004,1.562
		c0.004,0.187,0.039,0.374,0.077,0.558c0.011,0.055,0.068,0.122,0.12,0.141c0.172,0.064,0.35,0.145,0.528,0.156
		c0.614,0.041,1.235-0.054,1.847,0.084c1.313,0,2.627,0,3.93,0c0.193-0.104,0.131-0.275,0.131-0.422
		c0.002-8.2,0.001-16.4,0.006-24.601c0-0.603-0.15-1.154-0.426-1.684c-0.247-0.478-0.628-0.82-1.085-1.073
		c-0.698-0.388-1.472-0.52-2.255-0.567c-0.455-0.028-0.912,0.016-1.367-0.011c-0.465-0.028-0.917,0.086-1.378,0.084
		c-0.115,0-0.229,0-0.362,0c-0.117,0.211-0.162,0.422-0.162,0.654c0.003,3.423,0.002,6.847,0.002,10.27
		C132.318,26.518,132.318,26.646,132.318,26.832z M97.143,44.21c0.477-0.048,1.066,0.053,1.659-0.065
		c0.327-0.064,0.667-0.092,0.996-0.168c0.12-0.028,0.243-0.049,0.362-0.08c0.358-0.09,0.724-0.16,1.07-0.283
		c0.346-0.122,0.68-0.282,1.004-0.455c0.483-0.258,0.966-0.52,1.379-0.891c0.184-0.166,0.409-0.29,0.576-0.469
		c0.161-0.172,0.343-0.32,0.49-0.512c0.298-0.388,0.59-0.778,0.861-1.186c0.346-0.518,0.569-1.094,0.844-1.645
		c0.01-0.479,0.35-0.883,0.312-1.372c0.211-0.447,0.172-0.948,0.303-1.415c0.057-0.205,0-0.44,0.014-0.66
		c0.014-0.227,0.052-0.451,0.073-0.676c0.056-0.58-0.079-1.152-0.081-1.73c-0.001-0.277-0.003-0.568-0.084-0.828
		c-0.098-0.309-0.139-0.629-0.207-0.939c-0.109-0.497-0.277-0.97-0.434-1.449c-0.084-0.259-0.25-0.484-0.351-0.73
		c-0.099-0.243-0.339-0.405-0.359-0.682c-0.22-0.053-0.177-0.306-0.328-0.426c-0.155-0.123-0.294-0.29-0.388-0.465
		c-0.204-0.378-0.602-0.54-0.877-0.836c-0.117-0.126-0.28-0.209-0.418-0.317c-0.44-0.348-0.942-0.582-1.452-0.805
		c-0.203-0.089-0.392-0.238-0.602-0.275c-0.233-0.042-0.425-0.25-0.685-0.168c-0.5-0.155-0.994-0.335-1.529-0.313
		c-0.013,0-0.031,0.006-0.038,0c-0.144-0.134-0.32-0.055-0.481-0.079c-0.16-0.023-0.319-0.071-0.48-0.073
		c-0.702-0.008-1.404-0.004-2.107-0.003c-0.077,0-0.177-0.023-0.227,0.016c-0.145,0.112-0.301,0.036-0.449,0.062
		c-0.16,0.027-0.319,0.065-0.48,0.074c-0.164,0.008-0.326,0.01-0.48,0.08c-0.125,0.057-0.256,0.1-0.401,0.084
		c-0.059-0.006-0.122,0.018-0.181,0.037c-0.433,0.139-0.881,0.228-1.291,0.43c-0.477,0.234-0.957,0.461-1.416,0.723
		c-0.328,0.186-0.631,0.417-0.917,0.666c-0.166,0.145-0.352,0.267-0.515,0.415c-0.134,0.121-0.25,0.262-0.369,0.399
		c-0.124,0.144-0.237,0.297-0.363,0.438c-0.37,0.412-0.635,0.891-0.914,1.363c-0.222,0.375-0.314,0.802-0.525,1.178
		c0.02,0.211-0.131,0.371-0.172,0.563c-0.062,0.29-0.118,0.582-0.183,0.872c-0.057,0.256-0.144,0.507-0.132,0.773
		c0.002,0.065,0.018,0.136-0.002,0.194c-0.133,0.402-0.162,0.814-0.154,1.234c0.006,0.377,0.002,0.755,0.002,1.133
		c-0.001,0.064-0.016,0.134,0,0.194c0.104,0.379,0.158,0.763,0.155,1.156c0,0.038-0.011,0.081,0,0.116
		c0.135,0.424,0.196,0.866,0.312,1.295c0.062,0.238,0.098,0.488,0.199,0.71c0.142,0.312,0.257,0.636,0.412,0.945
		c0.154,0.309,0.381,0.571,0.502,0.901c0.071,0.193,0.217,0.366,0.357,0.523c0.351,0.395,0.706,0.786,1.08,1.158
		c0.205,0.203,0.449,0.364,0.678,0.542c0.344,0.268,0.729,0.462,1.118,0.653c0.309,0.152,0.609,0.326,0.935,0.436
		c0.644,0.219,1.299,0.383,1.977,0.486c0.49,0.074,0.974,0.154,1.47,0.145C96.483,44.205,96.757,44.21,97.143,44.21z M24.369,43.801
		c0-0.086,0.009-0.15-0.001-0.213c-0.053-0.321-0.177-0.631-0.155-0.965c-0.191-0.437-0.174-0.916-0.21-1.369
		c-0.042-0.521-0.1-1.048-0.099-1.574c0.002-1.614-0.002-3.229,0.004-4.842c0.001-0.239-0.046-0.482,0.062-0.721
		c0.036-0.077-0.021-0.195-0.029-0.295c-0.015-0.191-0.079-0.4-0.022-0.568c0.052-0.156,0.057-0.301,0.055-0.449
		c-0.008-0.734,0.044-1.47-0.067-2.201c-0.044-0.288-0.006-0.579-0.066-0.875c-0.065-0.316-0.112-0.641-0.171-0.961
		c-0.114-0.615-0.355-1.184-0.633-1.736c-0.135-0.267-0.328-0.504-0.514-0.745c-0.396-0.514-0.878-0.907-1.44-1.213
		c-0.535-0.291-1.094-0.52-1.691-0.652c-0.328-0.072-0.645-0.181-0.984-0.22c-0.199-0.022-0.416-0.019-0.595-0.081
		c-0.233-0.081-0.458-0.028-0.682-0.067c-0.225-0.04-0.446-0.081-0.678-0.076c-1.059,0.022-2.12-0.053-3.176,0.077
		c-0.354,0.043-0.712,0.057-1.068,0.083c-0.013,0.001-0.028-0.004-0.039,0c-0.366,0.138-0.76,0.132-1.137,0.221
		c-0.398,0.093-0.799,0.181-1.192,0.293c-0.596,0.171-1.168,0.397-1.702,0.726c-0.367,0.226-0.733,0.441-1.035,0.755
		c-0.337,0.35-0.378,0.766-0.263,1.202c0.181,0.688,0.521,1.307,0.899,1.905c0.054,0.086,0.124,0.162,0.171,0.222
		c0.804-0.368,1.576-0.651,2.365-0.907c0.714-0.232,1.444-0.354,2.17-0.507c0.2-0.042,0.416,0.001,0.623-0.012
		c0.201-0.013,0.399-0.061,0.6-0.069c0.292-0.011,0.583,0.035,0.874,0.057c0.444,0.033,0.871,0.105,1.286,0.253
		c0.389,0.138,0.76,0.325,0.986,0.688c0.218,0.351,0.377,0.731,0.375,1.159c-0.002,0.43,0.001,0.859,0,1.288
		c0,0.099-0.01,0.198-0.015,0.29c-0.589,0.053-1.153-0.023-1.719,0.075c-0.438,0.077-0.894-0.014-1.341,0.083
		c-0.282,0.061-0.579,0.018-0.874,0.072c-0.369,0.066-0.746,0.109-1.119,0.168c-0.406,0.064-0.802,0.168-1.192,0.289
		c-0.803,0.25-1.598,0.516-2.325,0.958c-0.431,0.263-0.857,0.526-1.225,0.874c-0.208,0.195-0.403,0.406-0.609,0.604
		c-0.286,0.274-0.489,0.606-0.672,0.952c-0.371,0.699-0.489,1.465-0.537,2.236c-0.027,0.443-0.033,0.893,0.051,1.344
		c0.069,0.368,0.13,0.732,0.242,1.093c0.172,0.554,0.325,0.915,0.599,1.353c0.204,0.323,0.5,0.552,0.755,0.822
		c0.44,0.467,0.995,0.752,1.592,0.957c0.422,0.146,0.836,0.334,1.299,0.314c0.319,0.148,0.674,0.123,1.003,0.139
		c0.587,0.027,1.185,0.094,1.77-0.059c0.413,0.045,0.811-0.081,1.193-0.176c0.733-0.18,1.421-0.514,2.057-0.924
		c0.403-0.26,0.782-0.566,1.072-0.966c0.082-0.112,0.205-0.194,0.321-0.304c0.053,0.059,0.119,0.098,0.133,0.151
		c0.063,0.24,0.104,0.485,0.166,0.726c0.119,0.457,0.368,0.838,0.765,1.094c0.422,0.271,0.915,0.379,1.4,0.465
		c0.323,0.056,0.658,0.025,0.99,0.074c0.356,0.053,0.728,0.021,1.091,0.01c0.369-0.014,0.738-0.049,1.106-0.078
		c0.047-0.004,0.089-0.044,0.137-0.053C23.645,43.931,23.988,43.869,24.369,43.801z M88.7,20.953
		c0.073-0.109,0.122-0.24,0.218-0.309c0.134-0.096,0.104-0.251,0.188-0.362c0.309-0.404,0.485-0.881,0.7-1.336
		c0.152-0.325,0.17-0.693,0.25-1.042c0.011-0.046-0.006-0.1-0.017-0.148c-0.017-0.072-0.048-0.142-0.056-0.214
		c-0.031-0.32-0.123-0.613-0.365-0.836c-0.149-0.137-0.301-0.275-0.469-0.388c-0.439-0.299-0.907-0.545-1.412-0.72
		c-0.406-0.141-0.818-0.263-1.236-0.367c-0.083-0.021-0.163-0.071-0.246-0.073c-0.392-0.006-0.771-0.089-1.156-0.153
		c-0.228-0.038-0.467,0.002-0.701-0.011c-0.226-0.012-0.451-0.074-0.675-0.068c-0.46,0.012-0.917-0.037-1.381,0.058
		c-0.369,0.076-0.766-0.025-1.142,0.092c-0.231,0.072-0.481,0.042-0.708,0.099c-0.344,0.085-0.691,0.172-1.028,0.291
		c-0.629,0.221-1.23,0.486-1.798,0.848c-0.396,0.252-0.732,0.561-1.062,0.879c-0.418,0.403-0.742,0.884-1.03,1.39
		c-0.232,0.409-0.365,0.859-0.56,1.283c-0.09,0.197-0.096,0.429-0.171,0.641c-0.083,0.231-0.146,0.477-0.164,0.72
		c-0.036,0.497-0.043,0.997-0.068,1.495c-0.055,1.064-0.008,2.134-0.021,3.201c-0.013,1.071,0.069,2.145-0.074,3.213
		c0,4.698,0,9.396,0,14.094c0,0.114,0,0.228,0,0.346c2.354,0,4.679,0,7.03,0c0-0.059,0-0.107,0-0.156c0-1.471,0-2.941,0-4.412
		c0-1.457,0.016-2.915-0.004-4.373c-0.02-1.463,0.138-2.921,0.082-4.384c-0.005-0.13-0.003-0.26,0-0.39
		c0.002-0.085,0.014-0.171,0.021-0.255c0.989,0,1.952-0.001,2.915,0c0.428,0.001,0.819-0.086,1.146-0.389
		c0.251-0.233,0.514-0.453,0.648-0.785c0.115-0.284,0.211-0.586,0.383-0.834c0.193-0.28,0.268-0.604,0.424-0.896
		c0.176-0.333,0.282-0.703,0.42-1.057c0.106-0.274,0.213-0.548,0.326-0.839c-0.232-0.073-0.432-0.123-0.65-0.122
		c-1.756,0.006-3.514,0.003-5.271,0.003c-0.114,0-0.229,0-0.363,0c0-0.699,0-1.373,0-2.047c0.117-0.182,0.022-0.409,0.107-0.585
		c0.161-0.333,0.285-0.674,0.541-0.972c0.402-0.467,0.923-0.701,1.458-0.917c0.213-0.086,0.472-0.083,0.71-0.082
		c0.229,0.001,0.44-0.09,0.691-0.023c0.298,0.08,0.628,0.04,0.946,0.078c0.327,0.039,0.633,0.134,0.939,0.224
		c0.482,0.141,0.955,0.312,1.408,0.536C88.501,20.932,88.596,20.932,88.7,20.953z M157.435,30.155
		c0.056-0.074,0.136-0.155,0.188-0.251c0.25-0.463,0.516-0.918,0.708-1.412c0.128-0.328,0.269-0.647,0.233-1.011
		c-0.01-0.103-0.008-0.208,0-0.312c0.021-0.271-0.1-0.493-0.271-0.678c-0.309-0.334-0.682-0.583-1.086-0.799
		c-0.578-0.309-1.178-0.557-1.799-0.756c-0.316-0.101-0.643-0.176-0.967-0.242c-0.365-0.074-0.725-0.232-1.113-0.167
		c-0.012,0.002-0.027-0.001-0.036-0.007c-0.196-0.142-0.438-0.076-0.655-0.13c-0.281-0.07-0.596-0.041-0.893-0.013
		c-0.301,0.029-0.577-0.091-0.871-0.086c-0.281,0.004-0.557,0.058-0.832,0.069c-0.447,0.02-0.895,0.021-1.339,0.092
		c-0.097,0.016-0.188,0.057-0.285,0.074c-0.1,0.017-0.205,0.005-0.302,0.03c-0.251,0.062-0.494,0.159-0.748,0.203
		c-0.565,0.098-1.086,0.334-1.584,0.587c-0.52,0.265-0.988,0.635-1.439,1.017c-0.697,0.589-1.072,1.383-1.386,2.2
		c-0.177,0.46-0.214,0.975-0.244,1.473c-0.015,0.249-0.017,0.499,0.056,0.758c0.068,0.246,0.02,0.524,0.088,0.789
		c0.104,0.397,0.25,0.771,0.479,1.113c0.096,0.143,0.187,0.289,0.293,0.422c0.108,0.134,0.246,0.244,0.349,0.382
		c0.105,0.142,0.253,0.237,0.38,0.345c0.304,0.255,0.65,0.459,0.979,0.684c0.205-0.018,0.322,0.168,0.506,0.213
		c0.189,0.045,0.363,0.148,0.545,0.223c0.158,0.064,0.314,0.144,0.479,0.186c0.763,0.193,1.503,0.457,2.257,0.682
		c0.387,0.115,0.766,0.26,1.145,0.4c0.449,0.167,0.822,0.414,1.16,0.732c0.1,0.094,0.19,0.205,0.259,0.323
		c0.228,0.394,0.29,0.798,0.17,1.256c-0.116,0.44-0.32,0.823-0.688,1.046c-0.408,0.246-0.861,0.451-1.374,0.411
		c-0.134-0.011-0.282-0.052-0.409,0.058c-0.03,0.027-0.118,0.033-0.145,0.01c-0.148-0.134-0.323-0.061-0.484-0.068
		c-0.279-0.016-0.557,0.006-0.832-0.078c-0.377-0.116-0.765-0.184-1.141-0.311c-0.328-0.109-0.636-0.252-0.952-0.385
		c-0.412-0.171-0.797-0.383-1.18-0.604c-0.288-0.167-0.573-0.339-0.884-0.523c-0.07,0.095-0.148,0.177-0.2,0.272
		c-0.235,0.445-0.49,0.879-0.698,1.341c-0.245,0.54-0.372,1.099-0.311,1.681c0.042,0.409,0.174,0.812,0.5,1.096
		c0.273,0.236,0.548,0.473,0.881,0.637c0.475,0.233,0.958,0.447,1.461,0.605c0.48,0.152,0.969,0.282,1.457,0.402
		c0.379,0.094,0.773,0.074,1.156,0.15c0.238,0.047,0.494-0.001,0.74,0.012c0.238,0.014,0.478,0.076,0.715,0.068
		c0.693-0.021,1.389,0.072,2.082-0.064c0.334-0.065,0.683-0.059,1.025-0.086c0.036-0.004,0.072-0.014,0.108-0.023
		c0.18-0.043,0.359-0.124,0.538-0.123c0.324,0,0.6-0.155,0.9-0.225c0.529-0.121,1.014-0.366,1.494-0.619
		c0.391-0.207,0.761-0.437,1.068-0.761c0.188-0.198,0.395-0.38,0.575-0.583c0.185-0.207,0.361-0.424,0.518-0.651
		c0.222-0.324,0.401-0.67,0.505-1.057c0.037-0.14,0.106-0.27,0.133-0.422c0.026-0.151,0.17-0.274,0.146-0.454
		c-0.02-0.152,0.031-0.295,0.074-0.441c0.042-0.143,0.08-0.293,0.076-0.439c-0.018-0.674,0.057-1.346-0.139-2.018
		c-0.17-0.586-0.216-0.867-0.482-1.269c-0.346-0.522-0.735-1.019-1.273-1.346c-0.33-0.2-0.68-0.386-1.045-0.536
		c-0.697-0.285-1.418-0.485-2.145-0.669c-0.357-0.091-0.714-0.19-1.073-0.278c-0.451-0.111-0.897-0.258-1.327-0.434
		c-0.328-0.133-0.646-0.311-0.936-0.517c-0.168-0.118-0.278-0.325-0.398-0.503c-0.125-0.186-0.16-0.417-0.221-0.622
		c-0.109-0.361,0.059-0.721,0.225-1.039c0.166-0.319,0.402-0.451,0.754-0.625c0.153-0.076,0.312-0.087,0.46-0.139
		c0.161-0.057,0.322-0.037,0.477-0.085c0.378-0.118,0.767-0.031,1.149-0.051c0.09,0.109,0.215,0.057,0.326,0.074
		c0.109,0.018,0.217,0.077,0.323,0.071c0.35-0.02,0.656,0.131,0.979,0.219c0.62,0.169,1.195,0.446,1.757,0.75
		C156.557,29.632,156.979,29.891,157.435,30.155z M47.882,9.997c0,4.519,0,8.995,0,13.502c0.078,0.036,0.165,0.076,0.229,0.106
		c0.247-0.205,0.452-0.4,0.683-0.558c0.222-0.152,0.459-0.293,0.71-0.388c0.264-0.099,0.502-0.257,0.779-0.321
		c0.264-0.061,0.527-0.125,0.777-0.184c0.077-0.16-0.055-0.348,0.099-0.484c-0.08-0.137-0.075-0.288-0.075-0.44
		c0.002-0.898,0.002-1.796,0-2.694c-0.001-0.306,0.147-0.605,0.069-0.908c-0.054-0.213-0.118-0.437-0.059-0.635
		c0.104-0.345,0.062-0.688,0.062-1.03c0.006-2.929,0.004-5.857,0.004-8.786c0-0.091,0.014-0.185-0.004-0.272
		c-0.014-0.068-0.067-0.128-0.091-0.17c-12.48,0-24.932,0-37.391,0c-0.029,0.227-0.08,0.437-0.08,0.648
		c-0.004,4.712-0.004,9.424-0.004,14.136c0,0.113,0,0.227,0,0.34c1.108,0,2.183,0,3.249,0c0.016-0.023,0.029-0.034,0.029-0.044
		c0.001-3.931,0.001-7.862,0.002-11.793c0-0.013-0.002-0.026,0.001-0.039c0.003-0.012,0.01-0.022,0.017-0.032
		c0.008-0.01,0.018-0.019,0.029-0.03c0.193,0,0.388,0,0.583,0c2.512,0,5.024-0.014,7.537,0.004c2.516,0.018,5.034-0.084,7.548,0.073
		c4.959,0,9.919,0,14.878,0C47.593,9.997,47.722,9.997,47.882,9.997z M116.688,43.742c0.005-0.07,0.007-0.096,0.007-0.121
		c0-1.275,0.001-2.551,0.001-3.826c0.001-1.262,0-2.523,0.001-3.786c0-1.274-0.014-2.55,0.003-3.825
		c0.017-1.266-0.081-2.535,0.073-3.798c0-3.201-0.002-6.402,0.004-9.603c0.001-0.282-0.14-0.546-0.081-0.831
		c-0.207-0.445-0.274-0.949-0.62-1.338c-0.311-0.348-0.66-0.658-1.08-0.82c-0.419-0.162-0.841-0.399-1.326-0.33
		c-0.022,0.003-0.049-0.006-0.071-0.017c-0.22-0.106-0.472-0.041-0.693-0.137c-0.706,0.042-1.415-0.077-2.12,0.069
		c-0.332,0.069-0.678,0.068-1.041,0.101c0,0.057,0,0.105,0,0.154c0,0.963,0,1.926,0,2.889c0,0.95,0,1.899-0.001,2.85
		c0,0.963-0.019,1.926,0.005,2.889c0.024,0.956-0.076,1.907-0.08,2.861c-0.006,1.77-0.001,3.539-0.001,5.308
		c0,0.912,0,1.822-0.001,2.733c0,0.897-0.013,1.796,0.004,2.693c0.018,0.901-0.073,1.806,0.069,2.706
		c0.054,0.338,0.058,0.684,0.083,1.025c0.002,0.025-0.007,0.059,0.006,0.074c0.17,0.207,0.172,0.482,0.301,0.712
		c0.199,0.35,0.438,0.649,0.784,0.851c0.36,0.209,0.702,0.443,1.13,0.539c0.244,0.056,0.479,0.139,0.732,0.134
		c0.049-0.001,0.1,0.012,0.148,0.021c0.258,0.043,0.515,0.123,0.772,0.125c0.394,0.004,0.796,0.074,1.183-0.068
		c0.322,0.053,0.629-0.095,0.948-0.081c0.049,0.002,0.106-0.001,0.146-0.025C116.188,43.74,116.425,43.732,116.688,43.742z
		 M13.532,52.625c0.058,0.123,0.193,0.1,0.323,0.1c1.627-0.001,3.254-0.001,4.881,0c1.64,0,3.281-0.016,4.92,0.004
		c1.618,0.019,3.238-0.087,4.854,0.072c7.42,0,14.84,0,22.259,0.001c0.1,0,0.2,0,0.301,0c0-2.124,0-4.214,0-6.304
		c-0.721-0.055-2.982-0.039-3.285,0.027c0,0.993,0,1.99,0,2.982c-10.337,0-20.655,0-30.964,0c-0.016-0.024-0.027-0.035-0.027-0.045
		c-0.001-1.263-0.001-2.525-0.002-3.788c0-0.011-0.011-0.021-0.019-0.031c-0.008-0.011-0.018-0.019-0.041-0.044
		c-0.062,0.024-0.133,0.046-0.199,0.078c-0.488,0.232-0.967,0.487-1.493,0.627c-0.346,0.091-0.693,0.181-1.045,0.242
		c-0.149,0.025-0.293,0.033-0.406,0.146c0,1.822,0.001,3.645-0.002,5.467C13.587,52.308,13.553,52.455,13.532,52.625z M28.667,23.95
		c0,1.39,0,2.782,0,4.174c0,1.444,0,2.888,0,4.333c0,1.432-0.016,2.863,0.003,4.294c0.02,1.437-0.083,2.874,0.067,4.31
		c0.037,0.353,0.087,0.683,0.227,1.02c0.158,0.381,0.341,0.729,0.649,0.996c0.167,0.145,0.393,0.219,0.565,0.357
		c0.544,0.439,1.216,0.486,1.857,0.607c0.359,0.068,0.738-0.006,1.107,0.08c0.179,0.041,0.373-0.025,0.561-0.053
		c0.338-0.05,0.685-0.013,1.027-0.088c0.351-0.076,0.711-0.109,1.075-0.289c0.014-0.266,0.041-0.543,0.041-0.82
		c0.003-5.18,0.003-10.358,0.004-15.538c0-0.267,0.01-0.533-0.076-0.794c-0.161-0.493-0.252-0.997-0.6-1.431
		c-0.354-0.441-0.772-0.767-1.277-0.963c-0.692-0.268-1.422-0.403-2.171-0.4c-0.547,0.002-1.093,0.001-1.64,0.001
		c-0.078,0-0.163-0.02-0.233,0.004C29.479,23.878,29.073,23.793,28.667,23.95z M32.057,21.506c0.34-0.038,0.696-0.027,1.018-0.125
		c0.659-0.202,1.255-0.503,1.729-1.056c0.46-0.536,0.648-1.149,0.725-1.81c0.052-0.453-0.026-0.903-0.132-1.356
		c-0.161-0.686-0.567-1.188-1.083-1.6c-0.302-0.241-0.689-0.392-1.059-0.525c-0.364-0.131-0.76-0.172-1.147-0.185
		c-0.391-0.012-0.78,0.053-1.159,0.149c-0.783,0.198-1.422,0.606-1.896,1.275c-0.147,0.208-0.25,0.424-0.342,0.659
		c-0.085,0.218-0.076,0.448-0.134,0.659c-0.143,0.513-0.103,1.028,0.038,1.505c0.315,1.066,0.638,1.465,1.584,1.984
		C30.768,21.392,31.401,21.501,32.057,21.506z"/>
	<path fill-rule="evenodd" clip-rule="evenodd" fill="#3D7C9A" d="M47.726,43.735c-2.389,0-4.73,0-7.071,0
		c-0.038-0.07-0.072-0.136-0.112-0.21c0.022-0.06,0.071-0.131,0.068-0.198c-0.006-0.122-0.088-0.257-0.058-0.362
		c0.036-0.123,0.063-0.241,0.063-0.369c0-5.947,0-11.896,0-17.904c0.018-0.012,0.068-0.071,0.126-0.079
		c0.263-0.037,0.529-0.051,0.792-0.09c0.835-0.123,1.676-0.093,2.513-0.064c0.775,0.027,1.537,0.193,2.233,0.551
		c0.576,0.297,1.001,0.746,1.219,1.381c0.104,0.302,0.278,0.58,0.438,0.904c0.044-0.062,0.077-0.103,0.104-0.146
		c0.294-0.477,0.57-0.967,0.891-1.425c0.142-0.203,0.369-0.351,0.57-0.508c0.237-0.186,0.474-0.378,0.733-0.527
		c0.421-0.242,0.885-0.369,1.359-0.486c0.917-0.226,1.842-0.115,2.763-0.143c0.53,0.124,1.066,0.213,1.578,0.422
		c0.631,0.257,1.178,0.628,1.639,1.117c0.388,0.411,0.675,0.9,0.932,1.404c0.124,0.243,0.262,0.478,0.419,0.761
		c0.176-0.354,0.327-0.668,0.487-0.978c0.244-0.472,0.554-0.881,0.971-1.229c0.352-0.293,0.711-0.571,1.106-0.79
		c0.522-0.289,1.09-0.449,1.682-0.57c0.623-0.127,1.241-0.142,1.866-0.136c0.784,0.007,1.547,0.138,2.281,0.418
		c0.484,0.186,0.928,0.442,1.292,0.818c0.294,0.303,0.609,0.583,0.836,0.951c0.295,0.478,0.533,0.978,0.698,1.513
		c0.111,0.358,0.183,0.722,0.25,1.092c0.053,0.294,0.026,0.586,0.068,0.875c0.14,0.966,0.055,1.936,0.072,2.904
		c0.017,0.988,0.003,1.979,0.003,2.967c0,0.977-0.001,1.953-0.001,2.929c0,1.744,0,3.488,0,5.235
		c-0.119,0.217-0.358,0.155-0.539,0.204c-0.478,0.129-0.97,0.183-1.469,0.169c-0.39-0.012-0.781-0.004-1.171-0.002
		c-0.634,0.002-1.253-0.107-1.847-0.319c-0.917-0.327-1.608-0.907-1.891-1.879c-0.055-0.19-0.094-0.386-0.121-0.586
		c-0.148-1.109-0.052-2.223-0.07-3.333c-0.018-1.119-0.003-2.239-0.003-3.359c0-0.897-0.01-1.795,0.005-2.693
		c0.008-0.487-0.078-0.964-0.175-1.43c-0.101-0.486-0.373-0.9-0.883-1.099c-0.176-0.068-0.355-0.108-0.537-0.144
		c-0.16-0.031-0.338,0.06-0.483-0.074c-0.225,0.121-0.477,0.036-0.71,0.092c-0.29,0.07-0.579,0.165-0.812,0.349
		c-0.271,0.214-0.416,0.526-0.547,0.844c-0.072,0.173-0.076,0.345-0.076,0.522c0,3.97-0.003,7.939,0.003,11.909
		c0,0.205-0.08,0.406-0.012,0.617c0.016,0.049-0.058,0.128-0.088,0.188c-2.361,0-4.703,0-7.078,0
		c-0.003-0.138-0.01-0.276-0.01-0.414c0-3.905,0-7.81,0.003-11.714c0-0.293-0.019-0.578-0.128-0.857
		c-0.058-0.148-0.072-0.313-0.109-0.471c-0.125-0.532-0.771-0.993-1.274-0.991c-0.108,0-0.196-0.066-0.287-0.072
		c-0.509-0.034-1.014,0.037-1.468,0.264c-0.378,0.189-0.63,0.512-0.813,0.912c-0.114,0.248-0.139,0.482-0.145,0.735
		c-0.023,0.968-0.066,1.936-0.069,2.903c-0.009,3.098-0.004,6.195-0.005,9.293C47.726,43.457,47.726,43.584,47.726,43.735z"/>
	<path fill-rule="evenodd" clip-rule="evenodd" fill="#74C3D6" d="M132.318,26.832c0-0.186,0-0.313,0-0.441
		c0-3.423,0.001-6.847-0.002-10.27c0-0.232,0.045-0.443,0.162-0.654c0.133,0,0.247,0,0.362,0c0.461,0.002,0.913-0.112,1.378-0.084
		c0.455,0.027,0.912-0.017,1.367,0.011c0.783,0.048,1.557,0.18,2.255,0.567c0.457,0.253,0.838,0.596,1.085,1.073
		c0.275,0.53,0.426,1.082,0.426,1.684c-0.005,8.201-0.004,16.401-0.006,24.601c0,0.146,0.062,0.318-0.131,0.422
		c-1.303,0-2.616,0-3.93,0c-0.611-0.138-1.232-0.043-1.847-0.084c-0.179-0.012-0.356-0.092-0.528-0.156
		c-0.052-0.019-0.109-0.086-0.12-0.141c-0.038-0.184-0.073-0.371-0.077-0.558c-0.01-0.521-0.004-1.041-0.004-1.562
		c0-0.074,0-0.148,0-0.208c-0.184-0.071-0.152,0.083-0.197,0.138c-0.185,0.223-0.344,0.467-0.539,0.68
		c-0.18,0.197-0.324,0.416-0.479,0.631c-0.177,0.246-0.438,0.414-0.703,0.568c-0.097,0.057-0.186,0.127-0.277,0.191
		c-0.439,0.311-0.94,0.51-1.447,0.632c-0.419,0.101-0.852,0.216-1.304,0.188c-0.506-0.029-1.015-0.013-1.522-0.004
		c-0.281,0.004-0.552-0.023-0.814-0.131c-0.056-0.023-0.125-0.033-0.184-0.025c-0.135,0.019-0.245-0.039-0.363-0.08
		c-0.197-0.068-0.398-0.123-0.596-0.189c-0.55-0.186-1.02-0.504-1.482-0.847c-0.483-0.356-1.277-1.308-1.533-1.847
		c-0.158-0.335-0.375-0.646-0.498-0.991c-0.186-0.519-0.377-1.036-0.496-1.582c-0.103-0.467-0.123-0.942-0.232-1.401
		c-0.062-0.258-0.029-0.507-0.068-0.756c-0.114-0.744-0.064-1.492-0.074-2.238c-0.008-0.552,0.131-1.098,0.078-1.651
		c0.157-0.526,0.086-1.096,0.312-1.607c-0.028-0.5,0.234-0.935,0.322-1.41c0.055-0.295,0.186-0.591,0.344-0.848
		c0.095-0.153,0.137-0.316,0.211-0.471c0.233-0.483,0.529-0.933,0.855-1.35c0.306-0.391,0.665-0.745,1.065-1.06
		c0.309-0.243,0.622-0.462,0.972-0.629c0.321-0.153,0.645-0.345,0.986-0.398c0.346-0.054,0.674-0.229,1.035-0.175
		c0.453-0.151,0.919-0.055,1.379-0.076c0.646-0.029,1.266,0.121,1.871,0.335c0.382,0.135,0.756,0.296,1.107,0.492
		c0.262,0.146,0.498,0.35,0.72,0.557C131.542,26.037,131.906,26.418,132.318,26.832z M132.312,29.714
		c-0.059-0.053-0.128-0.131-0.212-0.187c-0.48-0.313-1.029-0.41-1.583-0.465c-0.289-0.029-0.583-0.023-0.87,0.068
		c-0.164,0.053-0.371,0.025-0.502,0.116c-0.149,0.105-0.326,0.118-0.469,0.215c-0.502,0.341-0.811,0.824-1.053,1.371
		c-0.111,0.254-0.149,0.52-0.223,0.779c-0.094,0.332-0.187,0.668-0.229,1.01c-0.041,0.326-0.033,0.656-0.074,0.987
		c-0.053,0.437-0.006,0.883-0.015,1.325c-0.009,0.449,0.136,0.887,0.081,1.338c-0.004,0.025-0.01,0.058,0.002,0.076
		c0.2,0.326,0.068,0.748,0.31,1.061c0.054,0.428,0.253,0.803,0.49,1.145c0.311,0.447,0.657,0.872,1.201,1.064
		c0.104,0.037,0.2,0.096,0.304,0.134c0.334,0.125,0.693,0.087,1.035,0.159c0.021,0.004,0.047-0.015,0.07-0.02
		c0.098-0.02,0.196-0.059,0.293-0.053c0.516,0.032,0.98-0.133,1.442-0.348C132.312,36.24,132.312,32.99,132.312,29.714z"/>
	<path fill-rule="evenodd" clip-rule="evenodd" fill="#74C3D6" d="M97.143,44.21c-0.386,0-0.659-0.005-0.933,0.001
		c-0.496,0.01-0.979-0.07-1.47-0.145c-0.678-0.104-1.333-0.268-1.977-0.486c-0.325-0.109-0.626-0.283-0.935-0.436
		c-0.39-0.191-0.774-0.386-1.118-0.653c-0.229-0.178-0.473-0.339-0.678-0.542c-0.374-0.372-0.729-0.764-1.08-1.158
		c-0.141-0.157-0.286-0.33-0.357-0.523c-0.121-0.33-0.348-0.593-0.502-0.901c-0.155-0.31-0.271-0.633-0.412-0.945
		c-0.102-0.222-0.137-0.472-0.199-0.71c-0.115-0.429-0.177-0.871-0.312-1.295c-0.011-0.035,0-0.078,0-0.116
		c0.003-0.394-0.052-0.777-0.155-1.156c-0.016-0.061-0.001-0.13,0-0.194c0-0.378,0.004-0.756-0.002-1.133
		c-0.008-0.42,0.021-0.832,0.154-1.234c0.02-0.059,0.004-0.129,0.002-0.194c-0.012-0.267,0.075-0.518,0.132-0.773
		c0.064-0.29,0.12-0.582,0.183-0.872c0.041-0.192,0.191-0.352,0.172-0.563c0.211-0.376,0.304-0.804,0.525-1.178
		c0.279-0.473,0.544-0.952,0.914-1.363c0.126-0.141,0.239-0.295,0.363-0.438c0.119-0.137,0.235-0.278,0.369-0.399
		c0.163-0.148,0.349-0.271,0.515-0.415c0.286-0.249,0.589-0.479,0.917-0.666c0.459-0.262,0.939-0.488,1.416-0.723
		c0.41-0.202,0.858-0.291,1.291-0.43c0.059-0.019,0.122-0.043,0.181-0.037c0.146,0.016,0.276-0.027,0.401-0.084
		c0.154-0.07,0.316-0.072,0.48-0.08c0.161-0.008,0.32-0.046,0.48-0.074c0.148-0.025,0.305,0.051,0.449-0.062
		c0.05-0.039,0.149-0.015,0.227-0.016c0.703,0,1.405-0.005,2.107,0.003c0.161,0.002,0.32,0.049,0.48,0.073
		c0.161,0.024,0.338-0.055,0.481,0.079c0.007,0.006,0.025,0,0.038,0c0.535-0.021,1.029,0.158,1.529,0.313
		c0.26-0.082,0.451,0.126,0.685,0.168c0.21,0.037,0.398,0.186,0.602,0.275c0.51,0.223,1.012,0.458,1.452,0.805
		c0.138,0.108,0.301,0.191,0.418,0.317c0.275,0.296,0.673,0.458,0.877,0.836c0.094,0.175,0.232,0.342,0.388,0.465
		c0.151,0.12,0.108,0.374,0.328,0.426c0.021,0.277,0.261,0.438,0.359,0.682c0.101,0.246,0.267,0.471,0.351,0.73
		c0.156,0.479,0.324,0.952,0.434,1.449c0.068,0.311,0.109,0.631,0.207,0.939c0.081,0.26,0.083,0.551,0.084,0.828
		c0.002,0.578,0.137,1.15,0.081,1.73c-0.021,0.225-0.06,0.449-0.073,0.676c-0.014,0.22,0.043,0.455-0.014,0.66
		c-0.131,0.467-0.092,0.968-0.303,1.415c0.037,0.489-0.303,0.894-0.312,1.372c-0.274,0.551-0.498,1.127-0.844,1.645
		c-0.271,0.407-0.563,0.798-0.861,1.186c-0.147,0.191-0.329,0.34-0.49,0.512c-0.167,0.179-0.393,0.303-0.576,0.469
		c-0.413,0.371-0.896,0.633-1.379,0.891c-0.324,0.173-0.658,0.333-1.004,0.455c-0.347,0.123-0.712,0.193-1.07,0.283
		c-0.119,0.031-0.242,0.052-0.362,0.08c-0.329,0.076-0.669,0.104-0.996,0.168C98.209,44.263,97.619,44.162,97.143,44.21z
		 M100.057,34.069c0-0.273,0.044-0.556-0.012-0.817c-0.057-0.268-0.059-0.529-0.066-0.795c0-0.025,0.007-0.057-0.006-0.075
		c-0.209-0.323-0.158-0.717-0.29-1.069c-0.149-0.401-0.249-0.819-0.483-1.188c-0.287-0.454-0.693-0.744-1.196-0.911
		c-0.163-0.054-0.327-0.147-0.491-0.146c-0.355,0.001-0.706-0.014-1.068,0.052c-0.639,0.117-1.07,0.503-1.453,0.958
		c-0.316,0.376-0.517,0.828-0.672,1.305c-0.111,0.342-0.137,0.7-0.264,1.039c-0.064,0.171-0.001,0.387-0.014,0.581
		c-0.014,0.2-0.075,0.399-0.069,0.597c0.017,0.577-0.063,1.156,0.064,1.732c0.062,0.281,0.023,0.576,0.069,0.871
		c0.082,0.532,0.244,1.033,0.449,1.521c0.193,0.457,0.49,0.846,0.859,1.186c0.367,0.34,0.792,0.512,1.282,0.535
		c0.221,0.012,0.442-0.002,0.663,0.003c0.243,0.005,0.473-0.066,0.684-0.163c0.527-0.238,0.797-0.52,1.154-1.036
		c0.114-0.163,0.236-0.327,0.31-0.509c0.114-0.283,0.203-0.579,0.278-0.877c0.078-0.312,0.097-0.635,0.185-0.948
		c0.054-0.193,0.001-0.415,0.014-0.622c0.013-0.213,0.058-0.424,0.071-0.637C100.067,34.461,100.058,34.265,100.057,34.069z"/>
	<path fill-rule="evenodd" clip-rule="evenodd" fill="#3D7C9A" d="M24.369,43.801c-0.38,0.068-0.724,0.13-1.067,0.195
		c-0.048,0.009-0.09,0.049-0.137,0.053c-0.369,0.029-0.737,0.064-1.106,0.078c-0.364,0.012-0.735,0.043-1.091-0.01
		c-0.332-0.049-0.667-0.019-0.99-0.074c-0.486-0.086-0.979-0.193-1.4-0.465c-0.396-0.256-0.646-0.637-0.765-1.094
		c-0.062-0.24-0.103-0.485-0.166-0.726c-0.014-0.054-0.081-0.093-0.133-0.151c-0.117,0.109-0.239,0.191-0.321,0.304
		c-0.29,0.399-0.668,0.706-1.072,0.966c-0.636,0.41-1.324,0.744-2.057,0.924c-0.383,0.095-0.781,0.221-1.193,0.176
		c-0.584,0.152-1.182,0.086-1.77,0.059c-0.33-0.016-0.684,0.01-1.003-0.139c-0.463,0.02-0.877-0.169-1.299-0.314
		c-0.598-0.205-1.152-0.49-1.592-0.957c-0.255-0.271-0.552-0.499-0.755-0.822c-0.274-0.438-0.427-0.799-0.599-1.353
		c-0.112-0.36-0.173-0.725-0.242-1.093c-0.084-0.451-0.078-0.9-0.051-1.344c0.047-0.771,0.166-1.537,0.537-2.236
		c0.183-0.346,0.387-0.678,0.672-0.952c0.206-0.198,0.401-0.409,0.609-0.604c0.368-0.348,0.794-0.611,1.225-0.874
		c0.727-0.442,1.522-0.708,2.325-0.958c0.39-0.121,0.787-0.225,1.192-0.289c0.373-0.059,0.75-0.102,1.119-0.168
		c0.295-0.055,0.591-0.012,0.874-0.072c0.448-0.097,0.904-0.006,1.341-0.083c0.566-0.099,1.129-0.022,1.719-0.075
		c0.005-0.092,0.015-0.191,0.015-0.29c0.001-0.429-0.001-0.858,0-1.288c0.002-0.428-0.157-0.809-0.375-1.159
		c-0.226-0.362-0.597-0.549-0.986-0.688c-0.415-0.147-0.842-0.22-1.286-0.253c-0.29-0.021-0.581-0.068-0.874-0.057
		c-0.2,0.008-0.399,0.057-0.6,0.069c-0.207,0.013-0.423-0.03-0.623,0.012c-0.727,0.153-1.457,0.274-2.17,0.507
		c-0.789,0.256-1.561,0.54-2.365,0.907c-0.047-0.061-0.117-0.136-0.171-0.222c-0.377-0.598-0.718-1.217-0.899-1.905
		c-0.115-0.437-0.074-0.853,0.263-1.202c0.302-0.313,0.668-0.529,1.035-0.755c0.534-0.329,1.106-0.555,1.702-0.726
		c0.393-0.112,0.793-0.2,1.192-0.293c0.377-0.089,0.771-0.083,1.137-0.221c0.011-0.004,0.026,0.001,0.039,0
		c0.356-0.026,0.714-0.04,1.068-0.083c1.057-0.129,2.118-0.055,3.176-0.077c0.232-0.005,0.453,0.036,0.678,0.076
		c0.224,0.039,0.449-0.014,0.682,0.067c0.18,0.062,0.396,0.059,0.595,0.081c0.339,0.039,0.656,0.148,0.984,0.22
		c0.597,0.132,1.156,0.361,1.691,0.652c0.562,0.306,1.044,0.699,1.44,1.213c0.186,0.241,0.379,0.478,0.514,0.745
		c0.278,0.552,0.52,1.121,0.633,1.736c0.06,0.32,0.106,0.645,0.171,0.961c0.061,0.296,0.022,0.587,0.066,0.875
		c0.111,0.731,0.059,1.467,0.067,2.201c0.001,0.148-0.003,0.293-0.055,0.449c-0.057,0.168,0.007,0.377,0.022,0.568
		c0.008,0.1,0.065,0.218,0.029,0.295c-0.108,0.238-0.062,0.481-0.062,0.721c-0.006,1.613-0.002,3.228-0.004,4.842
		c-0.001,0.526,0.057,1.053,0.099,1.574c0.037,0.453,0.019,0.933,0.21,1.369c-0.022,0.334,0.102,0.644,0.155,0.965
		C24.377,43.65,24.369,43.715,24.369,43.801z M17.338,34.119c-0.272,0.057-0.506-0.027-0.754,0.077
		c-0.213,0.091-0.485-0.053-0.709,0.093c-0.434-0.014-0.839,0.129-1.248,0.238c-0.67,0.18-1.296,0.482-1.784,0.969
		c-0.465,0.465-0.79,1.038-0.816,1.732c-0.004,0.098-0.038,0.195-0.056,0.293c-0.009,0.049-0.036,0.119-0.014,0.146
		c0.122,0.151,0.065,0.324,0.067,0.486c0.003,0.166,0.035,0.322,0.082,0.481c0.177,0.604,0.514,1.091,1.053,1.419
		c0.518,0.314,1.107,0.371,1.696,0.398c0.094,0.005,0.193-0.07,0.287-0.064c0.261,0.016,0.489-0.088,0.73-0.157
		c0.628-0.181,1.084-0.546,1.337-1.155c0.052-0.126,0.135-0.23,0.135-0.385C17.335,37.186,17.338,35.678,17.338,34.119z"/>
	<path fill-rule="evenodd" clip-rule="evenodd" fill="#74C3D6" d="M88.7,20.953c-0.104-0.021-0.199-0.021-0.274-0.059
		c-0.453-0.224-0.926-0.396-1.408-0.536c-0.307-0.09-0.612-0.185-0.939-0.224c-0.318-0.038-0.648,0.002-0.946-0.078
		c-0.251-0.067-0.462,0.024-0.691,0.023c-0.238-0.001-0.497-0.004-0.71,0.082c-0.535,0.216-1.056,0.45-1.458,0.917
		c-0.256,0.298-0.38,0.64-0.541,0.972c-0.085,0.177,0.01,0.404-0.107,0.585c0,0.674,0,1.348,0,2.047c0.134,0,0.249,0,0.363,0
		c1.757,0,3.515,0.003,5.271-0.003c0.219-0.001,0.418,0.049,0.65,0.122c-0.113,0.292-0.22,0.565-0.326,0.839
		c-0.138,0.354-0.244,0.724-0.42,1.057c-0.156,0.292-0.23,0.617-0.424,0.896c-0.172,0.248-0.268,0.55-0.383,0.834
		c-0.135,0.333-0.397,0.552-0.648,0.785c-0.327,0.303-0.719,0.391-1.146,0.389c-0.963-0.002-1.926,0-2.915,0
		c-0.007,0.084-0.019,0.169-0.021,0.255c-0.003,0.13-0.005,0.26,0,0.39c0.056,1.463-0.102,2.921-0.082,4.384
		c0.02,1.458,0.004,2.916,0.004,4.373c0,1.471,0,2.941,0,4.412c0,0.049,0,0.098,0,0.156c-2.351,0-4.675,0-7.03,0
		c0-0.118,0-0.231,0-0.346c0-4.697,0-9.396,0-14.094c0.143-1.068,0.061-2.142,0.074-3.213c0.013-1.067-0.035-2.136,0.021-3.201
		c0.025-0.498,0.032-0.998,0.068-1.495c0.018-0.243,0.082-0.489,0.164-0.72c0.075-0.212,0.081-0.444,0.171-0.641
		c0.195-0.424,0.328-0.875,0.56-1.283c0.288-0.506,0.612-0.987,1.03-1.39c0.33-0.318,0.666-0.627,1.062-0.879
		c0.568-0.361,1.169-0.627,1.798-0.848c0.337-0.119,0.684-0.206,1.028-0.291c0.227-0.056,0.477-0.026,0.708-0.099
		c0.375-0.117,0.772-0.017,1.142-0.092c0.463-0.095,0.921-0.045,1.381-0.058c0.224-0.006,0.449,0.056,0.675,0.068
		c0.234,0.013,0.474-0.027,0.701,0.011c0.385,0.064,0.765,0.147,1.156,0.153c0.083,0.001,0.163,0.052,0.246,0.073
		c0.418,0.104,0.83,0.226,1.236,0.367c0.505,0.175,0.973,0.421,1.412,0.72c0.168,0.113,0.319,0.251,0.469,0.388
		c0.242,0.224,0.334,0.517,0.365,0.836c0.008,0.073,0.039,0.142,0.056,0.214c0.011,0.049,0.027,0.103,0.017,0.148
		c-0.08,0.348-0.098,0.717-0.25,1.042c-0.215,0.455-0.392,0.932-0.7,1.336c-0.084,0.111-0.055,0.267-0.188,0.362
		C88.822,20.713,88.773,20.844,88.7,20.953z"/>
	<path fill-rule="evenodd" clip-rule="evenodd" fill="#74C3D6" d="M157.435,30.155c-0.455-0.264-0.878-0.522-1.312-0.759
		c-0.562-0.305-1.137-0.582-1.757-0.75c-0.322-0.088-0.629-0.239-0.979-0.219c-0.106,0.006-0.214-0.054-0.323-0.071
		c-0.111-0.017-0.236,0.035-0.326-0.074c-0.383,0.02-0.771-0.066-1.149,0.051c-0.154,0.048-0.315,0.028-0.477,0.085
		c-0.147,0.052-0.307,0.062-0.46,0.139c-0.352,0.175-0.588,0.306-0.754,0.625c-0.166,0.318-0.334,0.677-0.225,1.039
		c0.061,0.206,0.096,0.437,0.221,0.622c0.12,0.178,0.23,0.385,0.398,0.503c0.289,0.206,0.607,0.384,0.936,0.517
		c0.43,0.176,0.876,0.322,1.327,0.434c0.359,0.088,0.716,0.188,1.073,0.278c0.727,0.184,1.447,0.384,2.145,0.669
		c0.365,0.15,0.715,0.336,1.045,0.536c0.538,0.327,0.928,0.823,1.273,1.346c0.267,0.401,0.312,0.683,0.482,1.269
		c0.195,0.672,0.121,1.344,0.139,2.018c0.004,0.146-0.034,0.297-0.076,0.439c-0.043,0.146-0.094,0.289-0.074,0.441
		c0.023,0.18-0.12,0.303-0.146,0.454c-0.026,0.152-0.096,0.282-0.133,0.422c-0.104,0.387-0.283,0.732-0.505,1.057
		c-0.156,0.228-0.333,0.444-0.518,0.651c-0.181,0.203-0.388,0.385-0.575,0.583c-0.308,0.324-0.678,0.554-1.068,0.761
		c-0.48,0.253-0.965,0.498-1.494,0.619c-0.301,0.069-0.576,0.225-0.9,0.225c-0.179-0.001-0.358,0.08-0.538,0.123
		c-0.036,0.01-0.072,0.02-0.108,0.023c-0.343,0.027-0.691,0.021-1.025,0.086c-0.693,0.137-1.389,0.043-2.082,0.064
		c-0.237,0.008-0.477-0.055-0.715-0.068c-0.246-0.013-0.502,0.035-0.74-0.012c-0.383-0.076-0.777-0.057-1.156-0.15
		c-0.488-0.12-0.977-0.25-1.457-0.402c-0.503-0.158-0.986-0.372-1.461-0.605c-0.333-0.164-0.607-0.4-0.881-0.637
		c-0.326-0.283-0.458-0.687-0.5-1.096c-0.062-0.582,0.065-1.141,0.311-1.681c0.208-0.462,0.463-0.896,0.698-1.341
		c0.052-0.096,0.13-0.178,0.2-0.272c0.311,0.185,0.596,0.356,0.884,0.523c0.383,0.222,0.768,0.434,1.18,0.604
		c0.316,0.133,0.624,0.275,0.952,0.385c0.376,0.127,0.764,0.194,1.141,0.311c0.275,0.084,0.553,0.062,0.832,0.078
		c0.161,0.008,0.336-0.065,0.484,0.068c0.026,0.023,0.114,0.018,0.145-0.01c0.127-0.109,0.275-0.068,0.409-0.058
		c0.513,0.04,0.966-0.165,1.374-0.411c0.368-0.223,0.572-0.605,0.688-1.046c0.12-0.458,0.058-0.862-0.17-1.256
		c-0.068-0.118-0.159-0.229-0.259-0.323c-0.338-0.318-0.711-0.565-1.16-0.732c-0.379-0.141-0.758-0.285-1.145-0.4
		c-0.754-0.225-1.494-0.488-2.257-0.682c-0.165-0.042-0.321-0.121-0.479-0.186c-0.182-0.074-0.355-0.178-0.545-0.223
		c-0.184-0.045-0.301-0.23-0.506-0.213c-0.328-0.225-0.675-0.429-0.979-0.684c-0.127-0.107-0.274-0.203-0.38-0.345
		c-0.103-0.138-0.24-0.248-0.349-0.382c-0.106-0.133-0.197-0.279-0.293-0.422c-0.229-0.342-0.375-0.716-0.479-1.113
		c-0.068-0.265-0.02-0.543-0.088-0.789c-0.072-0.259-0.07-0.509-0.056-0.758c0.03-0.498,0.067-1.012,0.244-1.473
		c0.313-0.817,0.688-1.611,1.386-2.2c0.451-0.382,0.92-0.752,1.439-1.017c0.498-0.253,1.019-0.489,1.584-0.587
		c0.254-0.043,0.497-0.141,0.748-0.203c0.097-0.024,0.202-0.013,0.302-0.03c0.097-0.017,0.188-0.058,0.285-0.074
		c0.444-0.071,0.892-0.072,1.339-0.092c0.275-0.012,0.551-0.065,0.832-0.069c0.294-0.005,0.57,0.115,0.871,0.086
		c0.297-0.028,0.611-0.058,0.893,0.013c0.218,0.054,0.459-0.012,0.655,0.13c0.009,0.006,0.024,0.009,0.036,0.007
		c0.389-0.065,0.748,0.093,1.113,0.167c0.324,0.066,0.65,0.141,0.967,0.242c0.621,0.199,1.221,0.447,1.799,0.756
		c0.404,0.216,0.777,0.465,1.086,0.799c0.172,0.186,0.292,0.407,0.271,0.678c-0.008,0.104-0.01,0.209,0,0.312
		c0.035,0.364-0.105,0.684-0.233,1.011c-0.192,0.493-0.458,0.948-0.708,1.412C157.57,30,157.49,30.081,157.435,30.155z"/>
	<path fill-rule="evenodd" clip-rule="evenodd" fill="#74C3D6" d="M47.882,9.997c-0.161,0-0.289,0-0.417,0
		c-4.959,0-9.918,0-14.878,0c-2.515-0.157-5.032-0.055-7.548-0.073c-2.512-0.018-5.024-0.004-7.537-0.004c-0.195,0-0.39,0-0.583,0
		c-0.011,0.012-0.021,0.02-0.029,0.03c-0.007,0.01-0.014,0.021-0.017,0.032c-0.003,0.012-0.001,0.026-0.001,0.039
		c0,3.931-0.001,7.862-0.002,11.793c0,0.01-0.013,0.021-0.029,0.044c-1.066,0-2.141,0-3.249,0c0-0.113,0-0.227,0-0.34
		c0-4.712,0-9.424,0.004-14.136c0-0.211,0.051-0.421,0.08-0.648c12.458,0,24.91,0,37.391,0c0.023,0.042,0.077,0.102,0.091,0.17
		c0.018,0.087,0.004,0.181,0.004,0.272c0,2.929,0.002,5.857-0.004,8.786c0,0.342,0.042,0.685-0.062,1.03
		c-0.06,0.198,0.004,0.422,0.059,0.635c0.078,0.303-0.07,0.602-0.069,0.908c0.002,0.898,0.002,1.796,0,2.694
		c0,0.152-0.005,0.303,0.075,0.44c-0.153,0.136-0.022,0.324-0.099,0.484c-0.25,0.059-0.513,0.123-0.777,0.184
		c-0.277,0.063-0.516,0.222-0.779,0.321c-0.25,0.094-0.488,0.236-0.71,0.388c-0.23,0.158-0.436,0.354-0.683,0.558
		c-0.064-0.03-0.15-0.07-0.229-0.106C47.882,18.992,47.882,14.516,47.882,9.997z"/>
	<path fill-rule="evenodd" clip-rule="evenodd" fill="#74C3D6" d="M116.688,43.742c-0.264-0.01-0.501-0.002-0.716,0.128
		c-0.039,0.024-0.097,0.027-0.146,0.025c-0.319-0.014-0.626,0.134-0.948,0.081c-0.387,0.143-0.789,0.072-1.183,0.068
		c-0.258-0.002-0.515-0.082-0.772-0.125c-0.049-0.009-0.1-0.021-0.148-0.021c-0.254,0.005-0.488-0.078-0.732-0.134
		c-0.428-0.096-0.77-0.33-1.13-0.539c-0.347-0.201-0.585-0.501-0.784-0.851c-0.129-0.229-0.131-0.505-0.301-0.712
		c-0.013-0.016-0.004-0.049-0.006-0.074c-0.025-0.342-0.029-0.688-0.083-1.025c-0.143-0.9-0.052-1.805-0.069-2.706
		c-0.017-0.897-0.004-1.796-0.004-2.693c0.001-0.911,0.001-1.821,0.001-2.733c0-1.77-0.005-3.539,0.001-5.308
		c0.004-0.954,0.104-1.905,0.08-2.861c-0.023-0.962-0.005-1.926-0.005-2.889c0.001-0.95,0.001-1.9,0.001-2.85
		c0-0.963,0-1.926,0-2.889c0-0.049,0-0.098,0-0.154c0.363-0.033,0.709-0.032,1.041-0.101c0.705-0.146,1.414-0.028,2.12-0.069
		c0.222,0.096,0.474,0.03,0.693,0.137c0.022,0.01,0.049,0.02,0.071,0.017c0.485-0.07,0.907,0.167,1.326,0.33
		c0.42,0.162,0.77,0.472,1.08,0.82c0.346,0.389,0.413,0.893,0.62,1.338c-0.059,0.285,0.082,0.549,0.081,0.831
		c-0.006,3.201-0.004,6.402-0.004,9.603c-0.154,1.263-0.057,2.533-0.073,3.798c-0.017,1.275-0.003,2.551-0.003,3.825
		c-0.001,1.263,0,2.524-0.001,3.786c0,1.275-0.001,2.551-0.001,3.826C116.695,43.646,116.693,43.672,116.688,43.742z"/>
	<path fill-rule="evenodd" clip-rule="evenodd" fill="#74C3D6" d="M13.532,52.625c0.021-0.17,0.056-0.317,0.056-0.465
		c0.004-1.822,0.002-3.645,0.002-5.467c0.113-0.113,0.257-0.121,0.406-0.146c0.352-0.062,0.699-0.151,1.045-0.242
		c0.526-0.14,1.005-0.395,1.493-0.627c0.066-0.032,0.136-0.054,0.199-0.078c0.023,0.025,0.033,0.033,0.041,0.044
		c0.007,0.01,0.019,0.021,0.019,0.031c0.001,1.263,0.001,2.525,0.002,3.788c0,0.01,0.012,0.021,0.027,0.045
		c10.309,0,20.626,0,30.964,0c0-0.992,0-1.989,0-2.982c0.302-0.066,2.564-0.082,3.285-0.027c0,2.09,0,4.18,0,6.304
		c-0.101,0-0.201,0-0.301,0c-7.419-0.001-14.839-0.001-22.259-0.001c-1.616-0.159-3.236-0.054-4.854-0.072
		c-1.64-0.02-3.28-0.004-4.92-0.004c-1.627-0.001-3.254-0.001-4.881,0C13.725,52.725,13.59,52.748,13.532,52.625z"/>
	<path fill-rule="evenodd" clip-rule="evenodd" fill="#3D7C9A" d="M28.667,23.95c0.406-0.156,0.811-0.072,1.186-0.199
		c0.07-0.024,0.155-0.004,0.233-0.004c0.546,0,1.093,0.001,1.64-0.001c0.749-0.003,1.479,0.132,2.171,0.4
		c0.505,0.196,0.924,0.521,1.277,0.963c0.348,0.434,0.439,0.938,0.6,1.431c0.085,0.261,0.076,0.528,0.076,0.794
		c0,5.18,0,10.358-0.004,15.538c0,0.277-0.027,0.555-0.041,0.82c-0.364,0.18-0.724,0.213-1.075,0.289
		c-0.343,0.075-0.689,0.038-1.027,0.088c-0.188,0.027-0.381,0.094-0.561,0.053c-0.369-0.086-0.748-0.012-1.107-0.08
		c-0.641-0.121-1.312-0.168-1.857-0.607c-0.173-0.139-0.398-0.213-0.565-0.357c-0.308-0.267-0.491-0.615-0.649-0.996
		c-0.14-0.337-0.19-0.667-0.227-1.02c-0.15-1.436-0.047-2.873-0.067-4.31c-0.02-1.431-0.004-2.862-0.003-4.294
		c0-1.445,0-2.889,0-4.333C28.667,26.731,28.667,25.339,28.667,23.95z"/>
	<path fill-rule="evenodd" clip-rule="evenodd" fill="#3D7C9A" d="M32.057,21.506c-0.655-0.005-1.289-0.114-1.857-0.427
		c-0.947-0.519-1.27-0.918-1.584-1.984c-0.141-0.477-0.181-0.992-0.038-1.505c0.059-0.211,0.049-0.44,0.134-0.659
		c0.092-0.234,0.195-0.451,0.342-0.659c0.474-0.668,1.113-1.077,1.896-1.275c0.379-0.096,0.769-0.161,1.159-0.149
		c0.387,0.012,0.783,0.053,1.147,0.185c0.37,0.134,0.757,0.285,1.059,0.525c0.515,0.411,0.922,0.914,1.083,1.6
		c0.106,0.453,0.185,0.903,0.132,1.356c-0.076,0.661-0.265,1.274-0.725,1.81c-0.474,0.553-1.07,0.854-1.729,1.056
		C32.752,21.479,32.397,21.468,32.057,21.506z"/>
	<path fill-rule="evenodd" clip-rule="evenodd" fill="none" d="M132.312,29.714c0,3.276,0,6.526,0,9.778
		c-0.462,0.215-0.927,0.38-1.442,0.348c-0.097-0.006-0.195,0.033-0.293,0.053c-0.023,0.005-0.049,0.023-0.07,0.02
		c-0.342-0.072-0.701-0.034-1.035-0.159c-0.104-0.038-0.199-0.097-0.304-0.134c-0.544-0.192-0.891-0.617-1.201-1.064
		c-0.237-0.342-0.437-0.717-0.49-1.145c-0.241-0.312-0.109-0.734-0.31-1.061c-0.012-0.019-0.006-0.051-0.002-0.076
		c0.055-0.451-0.09-0.889-0.081-1.338c0.009-0.442-0.038-0.889,0.015-1.325c0.041-0.331,0.033-0.661,0.074-0.987
		c0.042-0.342,0.135-0.678,0.229-1.01c0.073-0.26,0.111-0.525,0.223-0.779c0.242-0.547,0.551-1.03,1.053-1.371
		c0.143-0.097,0.319-0.11,0.469-0.215c0.131-0.091,0.338-0.063,0.502-0.116c0.287-0.092,0.581-0.097,0.87-0.068
		c0.554,0.055,1.103,0.152,1.583,0.465C132.184,29.583,132.253,29.662,132.312,29.714z"/>
	<path fill-rule="evenodd" clip-rule="evenodd" fill="none" d="M100.058,34.069c0,0.195,0.01,0.392-0.003,0.585
		c-0.014,0.213-0.059,0.424-0.071,0.637c-0.013,0.207,0.04,0.429-0.014,0.622c-0.088,0.313-0.106,0.637-0.185,0.948
		c-0.075,0.298-0.164,0.594-0.278,0.877c-0.073,0.182-0.195,0.346-0.31,0.509c-0.357,0.517-0.627,0.798-1.154,1.036
		c-0.211,0.097-0.44,0.168-0.684,0.163c-0.221-0.005-0.442,0.009-0.663-0.003c-0.49-0.023-0.915-0.195-1.282-0.535
		c-0.369-0.34-0.666-0.729-0.859-1.186c-0.205-0.488-0.367-0.989-0.449-1.521c-0.046-0.295-0.007-0.59-0.069-0.871
		c-0.128-0.576-0.048-1.155-0.064-1.732c-0.006-0.197,0.056-0.396,0.069-0.597c0.013-0.194-0.051-0.41,0.014-0.581
		c0.127-0.339,0.152-0.697,0.264-1.039c0.155-0.477,0.355-0.928,0.672-1.305c0.383-0.454,0.814-0.84,1.453-0.958
		c0.362-0.066,0.713-0.051,1.068-0.052c0.164,0,0.328,0.092,0.491,0.146c0.503,0.167,0.909,0.458,1.196,0.911
		c0.234,0.369,0.334,0.787,0.483,1.188c0.132,0.353,0.081,0.746,0.29,1.069c0.013,0.019,0.006,0.05,0.006,0.075
		c0.008,0.266,0.01,0.527,0.066,0.795C100.101,33.514,100.057,33.796,100.058,34.069z"/>
	<path fill-rule="evenodd" clip-rule="evenodd" fill="none" d="M17.338,34.119c0,1.559-0.002,3.066,0.004,4.572
		c0,0.154-0.083,0.259-0.135,0.385c-0.253,0.609-0.708,0.975-1.337,1.155c-0.241,0.069-0.469,0.173-0.73,0.157
		c-0.094-0.006-0.192,0.069-0.287,0.064c-0.589-0.027-1.178-0.084-1.696-0.398c-0.539-0.328-0.876-0.814-1.053-1.419
		c-0.047-0.159-0.079-0.315-0.082-0.481c-0.002-0.162,0.055-0.335-0.067-0.486c-0.022-0.027,0.005-0.098,0.014-0.146
		c0.018-0.098,0.052-0.195,0.056-0.293c0.026-0.694,0.351-1.268,0.816-1.732c0.488-0.486,1.114-0.789,1.784-0.969
		c0.409-0.109,0.814-0.252,1.248-0.238c0.225-0.146,0.497-0.002,0.709-0.093C16.832,34.092,17.065,34.176,17.338,34.119z"/>
</g>
</svg>
